<svg width="162" height="213" viewBox="0 0 162 213" fill="none" xmlns="http://www.w3.org/2000/svg">
<path fill-rule="evenodd" clip-rule="evenodd" d="M-64.2955 100.373L89.4437 -53.3662L95.6263 -47.1836L-58.113 106.556L-64.2955 100.373Z" fill="#F8F8F8"/>
<path fill-rule="evenodd" clip-rule="evenodd" d="M-47.5372 114.946L106.202 -38.7937L112.385 -32.6111L-41.3547 121.128L-47.5372 114.946Z" fill="#F8F8F8"/>
<path fill-rule="evenodd" clip-rule="evenodd" d="M-30.7789 129.518L122.96 -24.2214L129.143 -18.0389L-24.5964 135.7L-30.7789 129.518Z" fill="#F8F8F8"/>
<path fill-rule="evenodd" clip-rule="evenodd" d="M-14.0206 144.09L139.719 -9.64893L145.901 -3.46636L-7.83807 150.273L-14.0206 144.09Z" fill="#F8F8F8"/>
<path fill-rule="evenodd" clip-rule="evenodd" d="M2.73767 158.663L156.477 4.92358L162.659 11.1061L8.92023 164.845L2.73767 158.663Z" fill="#F8F8F8"/>
<path fill-rule="evenodd" clip-rule="evenodd" d="M19.496 173.235L173.235 19.4961L179.418 25.6787L25.6785 179.418L19.496 173.235Z" fill="#F8F8F8"/>
<path fill-rule="evenodd" clip-rule="evenodd" d="M36.2543 187.808L189.993 34.0684L196.176 40.2509L42.4368 193.99L36.2543 187.808Z" fill="#F8F8F8"/>
<path fill-rule="evenodd" clip-rule="evenodd" d="M53.0126 202.38L206.752 48.6409L212.934 54.8234L59.1951 208.563L53.0126 202.38Z" fill="#F8F8F8"/>
<path fill-rule="evenodd" clip-rule="evenodd" d="M69.7709 216.953L223.51 63.2134L229.693 69.3959L75.9534 223.135L69.7709 216.953Z" fill="#F8F8F8"/>
<path fill-rule="evenodd" clip-rule="evenodd" d="M86.5292 231.525L240.268 77.7858L246.451 83.9683L92.7117 237.708L86.5292 231.525Z" fill="#F8F8F8"/>
<path fill-rule="evenodd" clip-rule="evenodd" d="M103.287 246.097L257.027 92.3582L263.209 98.5407L109.47 252.28L103.287 246.097Z" fill="#F8F8F8"/>
<path fill-rule="evenodd" clip-rule="evenodd" d="M120.046 260.67L273.785 106.931L279.968 113.113L126.228 266.852L120.046 260.67Z" fill="#F8F8F8"/>
</svg>
