<svg width="46" height="46" viewBox="0 0 46 46" fill="none" xmlns="http://www.w3.org/2000/svg">
<path fill-rule="evenodd" clip-rule="evenodd" d="M0 22.5301C0 10.0871 10.0871 0 22.5301 0C34.9731 0 45.0602 10.0871 45.0602 22.5301C45.0602 34.9731 34.9731 45.0602 22.5301 45.0602C10.0871 45.0602 0 34.9731 0 22.5301Z" fill="#3F3151"/>
<path fill-rule="evenodd" clip-rule="evenodd" d="M14.3374 16.3854C14.3374 11.8607 18.0054 8.19263 22.5302 8.19263C27.0549 8.19263 30.7229 11.8607 30.7229 16.3854C30.7229 20.9101 27.0549 24.5782 22.5302 24.5782C18.0054 24.5782 14.3374 20.9101 14.3374 16.3854Z" fill="white"/>
<path fill-rule="evenodd" clip-rule="evenodd" d="M10.241 45.667C9.10982 45.667 8.19281 44.75 8.19281 43.6188V35.8192C8.19281 31.2945 11.8608 27.6265 16.3856 27.6265H28.6747C33.1995 27.6265 36.8675 31.2945 36.8675 35.8192V43.6188C36.8675 44.75 35.9505 45.667 34.8193 45.667C32.7134 45.667 20.3562 45.667 10.241 45.667Z" fill="white"/>
</svg>
